<svg width="22" height="22" viewBox="0 0 22 22" fill="none" xmlns="http://www.w3.org/2000/svg">
<path d="M11.0005 2.61312C12.5949 2.61312 13.8881 3.90523 13.8881 5.50053C13.8881 7.09479 12.5949 8.38792 11.0005 8.38792C9.40515 8.38792 8.11298 7.09479 8.11298 5.50053C8.11298 3.90523 9.40515 2.61312 11.0005 2.61312ZM11.0005 14.9877C15.0843 14.9877 19.3878 16.9945 19.3878 17.8751V19.3869H2.61219V17.8751C2.61219 16.9945 6.9167 14.9877 11.0005 14.9877ZM11.0005 0C7.96137 0 5.49972 2.46153 5.49972 5.50053C5.49972 8.53849 7.96137 11 11.0005 11C14.0386 11 16.5003 8.53849 16.5003 5.50053C16.5003 2.46153 14.0386 0 11.0005 0ZM11.0005 12.3746C7.32921 12.3746 0 14.2174 0 17.8751V20.6243C0 21.3813 0.618737 22 1.37466 22H20.6253C21.3813 22 22 21.3813 22 20.6243V17.8751C22 14.2174 14.6718 12.3746 11.0005 12.3746Z" fill="#606060"/>
</svg>
